<svg width="195" height="71" viewBox="0 0 195 71" fill="none" xmlns="http://www.w3.org/2000/svg">
<path d="M35.3559 70.5259C54.4901 70.5259 70.0014 54.96 70.0014 35.7585C70.0014 16.5569 54.4901 0.990997 35.3559 0.990997C16.2216 0.990997 0.710297 16.5569 0.710297 35.7585C0.710297 54.96 16.2216 70.5259 35.3559 70.5259Z" fill="url(#paint0_radial)"/>
<path d="M26.6792 46.5534C28.5386 46.5534 30.0459 45.0408 30.0459 43.1748C30.0459 41.3089 28.5386 39.7963 26.6792 39.7963C24.8198 39.7963 23.3125 41.3089 23.3125 43.1748C23.3125 45.0408 24.8198 46.5534 26.6792 46.5534Z" fill="#FEFEFE"/>
<path d="M35.051 46.5766C36.9104 46.5766 38.4178 45.0639 38.4178 43.198C38.4178 41.3321 36.9104 39.8195 35.051 39.8195C33.1916 39.8195 31.6843 41.3321 31.6843 43.198C31.6843 45.0639 33.1916 46.5766 35.051 46.5766Z" fill="#FEFEFE"/>
<path d="M43.471 46.6167C45.3304 46.6167 46.8377 45.1041 46.8377 43.2381C46.8377 41.3722 45.3304 39.8596 43.471 39.8596C41.6116 39.8596 40.1043 41.3722 40.1043 43.2381C40.1043 45.1041 41.6116 46.6167 43.471 46.6167Z" fill="#FEFEFE"/>
<path d="M26.7081 37.275C28.5675 37.275 30.0748 35.7624 30.0748 33.8964C30.0748 32.0305 28.5675 30.5179 26.7081 30.5179C24.8487 30.5179 23.3413 32.0305 23.3413 33.8964C23.3413 35.7624 24.8487 37.275 26.7081 37.275Z" fill="#FEFEFE"/>
<path d="M35.08 37.2983C36.9394 37.2983 38.4467 35.7856 38.4467 33.9197C38.4467 32.0538 36.9394 30.5411 35.08 30.5411C33.2206 30.5411 31.7132 32.0538 31.7132 33.9197C31.7132 35.7856 33.2206 37.2983 35.08 37.2983Z" fill="#FEFEFE"/>
<path d="M43.4984 37.3384C45.3578 37.3384 46.8652 35.8257 46.8652 33.9598C46.8652 32.0939 45.3578 30.5812 43.4984 30.5812C41.639 30.5812 40.1317 32.0939 40.1317 33.9598C40.1317 35.8257 41.639 37.3384 43.4984 37.3384Z" fill="#FEFEFE"/>
<path d="M26.737 28.4485C28.5964 28.4485 30.1037 26.9358 30.1037 25.0699C30.1037 23.204 28.5964 21.6913 26.737 21.6913C24.8776 21.6913 23.3702 23.204 23.3702 25.0699C23.3702 26.9358 24.8776 28.4485 26.737 28.4485Z" fill="#FEFEFE"/>
<path d="M35.1088 28.4717C36.9682 28.4717 38.4756 26.9591 38.4756 25.0931C38.4756 23.2272 36.9682 21.7146 35.1088 21.7146C33.2494 21.7146 31.7421 23.2272 31.7421 25.0931C31.7421 26.9591 33.2494 28.4717 35.1088 28.4717Z" fill="#FEFEFE"/>
<path d="M43.528 28.5118C45.3874 28.5118 46.8947 26.9992 46.8947 25.1332C46.8947 23.2673 45.3874 21.7546 43.528 21.7546C41.6686 21.7546 40.1612 23.2673 40.1612 25.1332C40.1612 26.9992 41.6686 28.5118 43.528 28.5118Z" fill="#FEFEFE"/>
<path d="M51.8753 37.3616C53.7347 37.3616 55.2421 35.849 55.2421 33.983C55.2421 32.1171 53.7347 30.6045 51.8753 30.6045C50.0159 30.6045 48.5086 32.1171 48.5086 33.983C48.5086 35.849 50.0159 37.3616 51.8753 37.3616Z" fill="#FEFEFE"/>
<path d="M18.2894 37.2413C20.1488 37.2413 21.6561 35.7286 21.6561 33.8627C21.6561 31.9968 20.1488 30.4841 18.2894 30.4841C16.43 30.4841 14.9227 31.9968 14.9227 33.8627C14.9227 35.7286 16.43 37.2413 18.2894 37.2413Z" fill="#FEFEFE"/>
<path d="M35.166 19.4784C37.0254 19.4784 38.5327 17.9658 38.5327 16.0998C38.5327 14.2339 37.0254 12.7212 35.166 12.7212C33.3066 12.7212 31.7993 14.2339 31.7993 16.0998C31.7993 17.9658 33.3066 19.4784 35.166 19.4784Z" fill="#FEFEFE"/>
<path d="M26.6792 56.0534C28.5386 56.0534 30.0459 54.5407 30.0459 52.6748C30.0459 50.8089 28.5386 49.2962 26.6792 49.2962C24.8198 49.2962 23.3125 50.8089 23.3125 52.6748C23.3125 54.5407 24.8198 56.0534 26.6792 56.0534Z" fill="#FEFEFE"/>
<path d="M35.051 56.0766C36.9104 56.0766 38.4178 54.5639 38.4178 52.698C38.4178 50.8321 36.9104 49.3195 35.051 49.3195C33.1916 49.3195 31.6843 50.8321 31.6843 52.698C31.6843 54.5639 33.1916 56.0766 35.051 56.0766Z" fill="#FEFEFE"/>
<path d="M43.471 56.1167C45.3304 56.1167 46.8377 54.6041 46.8377 52.7381C46.8377 50.8722 45.3304 49.3596 43.471 49.3596C41.6116 49.3596 40.1043 50.8722 40.1043 52.7381C40.1043 54.6041 41.6116 56.1167 43.471 56.1167Z" fill="#FEFEFE"/>
<path d="M90.9922 43.0946V45.3935H93.7933V43.0946C93.7933 42.981 93.8308 42.8866 93.9048 42.8123C93.9789 42.7374 94.073 42.7004 94.186 42.7004H95.6133C95.7266 42.7004 95.8207 42.7374 95.8945 42.8123C95.9686 42.8866 96.0061 42.981 96.0061 43.0946V49.3346C96.0061 49.4486 95.9686 49.5425 95.8945 49.6172C95.8207 49.6916 95.7266 49.7287 95.6133 49.7287H94.186C94.073 49.7287 93.9789 49.6916 93.9048 49.6172C93.8308 49.5425 93.7933 49.4486 93.7933 49.3346V46.9438H90.9922V49.3346C90.9922 49.4486 90.9551 49.5425 90.8806 49.6172C90.8066 49.6916 90.7129 49.7287 90.5994 49.7287H89.1725C89.0588 49.7287 88.9654 49.6916 88.8909 49.6172C88.8169 49.5425 88.7798 49.4486 88.7798 49.3346V43.0946C88.7798 42.981 88.8169 42.8866 88.8909 42.8123C88.9654 42.7374 89.0588 42.7004 89.1725 42.7004H90.5994C90.7129 42.7004 90.8066 42.7374 90.8806 42.8123C90.9551 42.8866 90.9922 42.981 90.9922 43.0946ZM104.253 46.8912H99.4354C99.4793 47.4169 99.6299 47.7998 99.8874 48.0407C100.145 48.2816 100.54 48.4021 101.072 48.4021C101.674 48.4021 102.093 48.2573 102.329 47.9687C102.512 47.7405 102.756 47.6269 103.062 47.6269H104.017C104.131 47.6269 104.225 47.664 104.299 47.7384C104.373 47.8131 104.41 47.9071 104.41 48.0211C104.41 49.247 103.245 49.8603 100.915 49.8603C99.7366 49.8603 98.82 49.5467 98.1657 48.9208C97.5113 48.2949 97.1839 47.3947 97.1839 46.2211C97.1839 45.0478 97.5134 44.1455 98.1724 43.5151C98.8312 42.8845 99.7453 42.5693 100.915 42.5693C102.093 42.5693 103.01 42.8754 103.664 43.4887C104.318 44.1018 104.645 44.9819 104.645 46.1295V46.497C104.645 46.611 104.609 46.705 104.535 46.7793C104.46 46.854 104.366 46.8912 104.253 46.8912ZM102.394 45.538C102.35 44.531 101.858 44.027 100.915 44.027C99.9725 44.027 99.4751 44.531 99.4227 45.538H102.394ZM113.05 49.7287H105.562C105.449 49.7287 105.354 49.6916 105.28 49.6172C105.206 49.5425 105.169 49.4486 105.169 49.3346V48.5729C105.169 48.4587 105.206 48.365 105.28 48.29C105.354 48.2159 105.449 48.1787 105.562 48.1787H106.06L106.937 44.6445C107.26 43.3485 108.329 42.7004 110.144 42.7004H113.05C113.163 42.7004 113.257 42.7374 113.331 42.8123C113.405 42.8866 113.442 42.981 113.442 43.0946V49.3346C113.442 49.4486 113.405 49.5425 113.331 49.6172C113.257 49.6916 113.163 49.7287 113.05 49.7287ZM108.154 48.1787H111.23V44.2504H110.078C109.459 44.2504 109.066 44.566 108.9 45.1962L108.154 48.1787ZM119.504 49.7287H115.406C115.293 49.7287 115.199 49.6916 115.125 49.6172C115.051 49.5425 115.014 49.4486 115.014 49.3346V43.0946C115.014 42.981 115.051 42.8866 115.125 42.8123C115.199 42.7374 115.293 42.7004 115.406 42.7004H119.229C120.04 42.7004 120.699 42.8579 121.205 43.1735C121.712 43.4887 121.965 43.966 121.965 44.6053C121.965 45.2361 121.703 45.713 121.18 46.037C121.921 46.4137 122.292 46.9877 122.292 47.758C122.292 48.4678 122.052 48.9734 121.572 49.2757C121.092 49.5776 120.402 49.7287 119.504 49.7287ZM119.347 46.8519H117.226V48.297H119.347C119.582 48.297 119.763 48.2311 119.89 48.0996C120.017 47.9687 120.08 47.7931 120.08 47.5746C120.08 47.3554 120.017 47.1802 119.89 47.0487C119.763 46.9178 119.582 46.8519 119.347 46.8519ZM117.226 45.4461H119.098C119.29 45.4461 119.447 45.3847 119.569 45.2621C119.691 45.1396 119.752 44.9819 119.752 44.7894C119.752 44.5968 119.691 44.4387 119.569 44.3162C119.447 44.1936 119.29 44.1326 119.098 44.1326H117.226V45.4461ZM125.526 47.3113L127.777 43.1602C127.847 43.0287 127.952 42.9193 128.091 42.8319C128.231 42.7443 128.366 42.7004 128.497 42.7004H130.291C130.404 42.7004 130.498 42.7374 130.572 42.8123C130.646 42.8866 130.684 42.981 130.684 43.0946V49.3346C130.684 49.4486 130.646 49.5425 130.572 49.6172C130.498 49.6916 130.404 49.7287 130.291 49.7287H128.956C128.842 49.7287 128.748 49.6916 128.674 49.6172C128.6 49.5425 128.563 49.4486 128.563 49.3346V45.1309L126.311 49.2689C126.241 49.3914 126.136 49.499 125.997 49.5909C125.857 49.6827 125.722 49.7287 125.591 49.7287H123.798C123.684 49.7287 123.59 49.6916 123.516 49.6172C123.442 49.5425 123.405 49.4486 123.405 49.3346V43.0946C123.405 42.981 123.442 42.8866 123.516 42.8123C123.59 42.7374 123.684 42.7004 123.798 42.7004H125.133C125.246 42.7004 125.34 42.7374 125.414 42.8123C125.488 42.8866 125.526 42.981 125.526 43.0946V47.3113ZM137.883 49.7287H136.456C136.343 49.7287 136.249 49.6916 136.175 49.6172C136.101 49.5425 136.063 49.4486 136.063 49.3346V46.9438C135.514 46.9438 135.095 47.2285 134.807 47.7977L134.126 49.1245C133.917 49.5271 133.59 49.7287 133.145 49.7287H131.94C131.774 49.7287 131.672 49.6719 131.633 49.5579C131.593 49.4439 131.621 49.2995 131.718 49.1245L132.673 47.3639C133.013 46.7246 133.468 46.3396 134.035 46.2078C133.712 46.1295 133.432 45.9847 133.197 45.7744C132.961 45.5643 132.787 45.3237 132.673 45.052L131.979 43.3046C131.813 42.9018 131.887 42.7004 132.202 42.7004H133.406C133.615 42.7004 133.803 42.7549 133.969 42.8649C134.135 42.974 134.252 43.121 134.323 43.3046L134.807 44.6186C135.025 45.1962 135.444 45.4854 136.063 45.4854V43.0946C136.063 42.981 136.101 42.8866 136.175 42.8123C136.249 42.7374 136.343 42.7004 136.456 42.7004H137.883C137.997 42.7004 138.09 42.7374 138.165 42.8123C138.239 42.8866 138.276 42.981 138.276 43.0946V45.4854C138.896 45.4854 139.315 45.1962 139.533 44.6186L140.017 43.3046C140.087 43.121 140.205 42.974 140.371 42.8649C140.536 42.7549 140.724 42.7004 140.933 42.7004H142.138C142.452 42.7004 142.526 42.9018 142.361 43.3046L141.667 45.052C141.553 45.3237 141.378 45.5643 141.143 45.7744C140.907 45.9847 140.628 46.1295 140.305 46.2078C140.873 46.3396 141.326 46.7246 141.667 47.3639L142.622 49.1245C142.718 49.2995 142.746 49.4439 142.707 49.5579C142.668 49.6719 142.566 49.7287 142.4 49.7287H141.196C140.75 49.7287 140.423 49.5271 140.213 49.1245L139.533 47.7977C139.245 47.2285 138.826 46.9438 138.276 46.9438V49.3346C138.276 49.4486 138.239 49.5425 138.165 49.6172C138.09 49.6916 137.997 49.7287 137.883 49.7287ZM145.777 47.3113L148.028 43.1602C148.098 43.0287 148.203 42.9193 148.343 42.8319C148.483 42.7443 148.617 42.7004 148.748 42.7004H150.542C150.655 42.7004 150.749 42.7374 150.823 42.8123C150.897 42.8866 150.935 42.981 150.935 43.0946V49.3346C150.935 49.4486 150.897 49.5425 150.823 49.6172C150.749 49.6916 150.655 49.7287 150.542 49.7287H149.207C149.093 49.7287 149 49.6916 148.925 49.6172C148.851 49.5425 148.814 49.4486 148.814 49.3346V45.1309L146.562 49.2689C146.492 49.3914 146.388 49.499 146.248 49.5909C146.109 49.6827 145.973 49.7287 145.842 49.7287H144.049C143.935 49.7287 143.842 49.6916 143.767 49.6172C143.693 49.5425 143.656 49.4486 143.656 49.3346V43.0946C143.656 42.981 143.693 42.8866 143.767 42.8123C143.842 42.7374 143.935 42.7004 144.049 42.7004H145.384C145.497 42.7004 145.592 42.7374 145.666 42.8123C145.74 42.8866 145.777 42.981 145.777 43.0946V47.3113ZM157.545 49.7287H156.917C156.647 49.7287 156.446 49.5797 156.315 49.282L154.679 45.3279V49.3346C154.679 49.4486 154.641 49.5425 154.567 49.6172C154.493 49.6916 154.399 49.7287 154.286 49.7287H152.898C152.785 49.7287 152.691 49.6916 152.616 49.6172C152.542 49.5425 152.506 49.4486 152.506 49.3346V43.0946C152.506 42.981 152.542 42.8866 152.616 42.8123C152.691 42.7374 152.785 42.7004 152.898 42.7004H155.097C155.351 42.7004 155.542 42.8579 155.674 43.1735L157.232 46.9963L158.789 43.1735C158.92 42.8579 159.112 42.7004 159.365 42.7004H161.565C161.678 42.7004 161.772 42.7374 161.846 42.8123C161.92 42.8866 161.957 42.981 161.957 43.0946V49.3346C161.957 49.4486 161.92 49.5425 161.846 49.6172C161.772 49.6916 161.678 49.7287 161.565 49.7287H160.177C160.063 49.7287 159.969 49.6916 159.895 49.6172C159.821 49.5425 159.784 49.4486 159.784 49.3346V45.3279L158.147 49.282C158.016 49.5797 157.816 49.7287 157.545 49.7287ZM165.747 47.8762C166.013 48.2269 166.43 48.4021 166.997 48.4021C167.564 48.4021 167.981 48.2269 168.247 47.8762C168.513 47.5262 168.647 46.9701 168.647 46.2078C168.647 45.4461 168.513 44.8924 168.247 44.5464C167.981 44.1999 167.564 44.027 166.997 44.027C166.43 44.027 166.013 44.1999 165.747 44.5464C165.481 44.8924 165.347 45.4461 165.347 46.2078C165.347 46.9701 165.481 47.5262 165.747 47.8762ZM164.13 43.4887C164.793 42.8754 165.749 42.5693 166.997 42.5693C168.245 42.5693 169.201 42.8754 169.864 43.4887C170.527 44.1018 170.859 45.0079 170.859 46.2078C170.859 47.4078 170.527 48.3166 169.864 48.9341C169.201 49.5516 168.245 49.8603 166.997 49.8603C165.749 49.8603 164.793 49.5516 164.13 48.9341C163.467 48.3166 163.135 47.4078 163.135 46.2078C163.135 45.0079 163.467 44.1018 164.13 43.4887ZM175.598 44.1193C174.987 44.1193 174.555 44.2833 174.302 44.6116C174.049 44.9405 173.922 45.477 173.922 46.2211C173.922 46.9571 174.053 47.489 174.315 47.8173C174.577 48.1458 175.026 48.3096 175.663 48.3096C176.326 48.3096 176.785 48.1087 177.038 47.7054C177.238 47.3905 177.483 47.2327 177.771 47.2327H178.727C178.84 47.2327 178.934 47.2699 179.008 47.3442C179.082 47.419 179.119 47.5129 179.119 47.6269C179.119 48.3628 178.803 48.9187 178.17 49.2953C177.538 49.6719 176.649 49.8603 175.506 49.8603C174.258 49.8603 173.303 49.5516 172.639 48.9341C171.976 48.3166 171.644 47.4122 171.644 46.2211C171.644 45.0212 171.974 44.1125 172.633 43.495C173.292 42.878 174.228 42.5693 175.44 42.5693C176.584 42.5693 177.472 42.7576 178.105 43.1338C178.738 43.5105 179.054 44.0669 179.054 44.802C179.054 44.9162 179.017 45.0106 178.943 45.0849C178.869 45.1592 178.775 45.1962 178.661 45.1962H177.706C177.418 45.1962 177.173 45.0387 176.973 44.7237C176.719 44.3205 176.261 44.1193 175.598 44.1193ZM179.905 42.7004H186.201C186.315 42.7004 186.409 42.7374 186.483 42.8123C186.557 42.8866 186.594 42.981 186.594 43.0946V43.8562C186.594 43.9702 186.557 44.0648 186.483 44.1389C186.409 44.2132 186.315 44.2504 186.201 44.2504H184.159V49.3346C184.159 49.4486 184.122 49.5425 184.048 49.6172C183.974 49.6916 183.88 49.7287 183.767 49.7287H182.34C182.226 49.7287 182.133 49.6916 182.058 49.6172C181.984 49.5425 181.947 49.4486 181.947 49.3346V44.2504H179.905C179.791 44.2504 179.697 44.2132 179.623 44.1389C179.549 44.0648 179.512 43.9702 179.512 43.8562V43.0946C179.512 42.981 179.549 42.8866 179.623 42.8123C179.697 42.7374 179.791 42.7004 179.905 42.7004ZM189.723 45.0254H191.66C192.568 45.0254 193.271 45.2052 193.768 45.5643C194.266 45.9236 194.515 46.5279 194.515 47.3772C194.515 48.2269 194.266 48.8311 193.768 49.1904C193.271 49.5495 192.568 49.7287 191.66 49.7287H187.904C187.79 49.7287 187.696 49.6916 187.622 49.6172C187.548 49.5425 187.511 49.4486 187.511 49.3346V43.0946C187.511 42.981 187.548 42.8866 187.622 42.8123C187.696 42.7374 187.79 42.7004 187.904 42.7004H189.33C189.444 42.7004 189.538 42.7374 189.611 42.8123C189.686 42.8866 189.723 42.981 189.723 43.0946V45.0254ZM191.464 46.4837H189.723V48.2704H191.464C191.726 48.2704 191.931 48.1942 192.079 48.0407C192.228 47.8874 192.302 47.6662 192.302 47.3772C192.302 47.0879 192.228 46.8673 192.079 46.7141C191.931 46.5606 191.726 46.4837 191.464 46.4837Z" fill="white"/>
<path d="M95.6142 37.3587H94.3259C94.0928 37.3587 93.8718 37.2785 93.6635 37.1182C93.4547 36.9586 93.3077 36.7676 93.2216 36.5459L90.0567 27.6826V36.4908C90.0567 36.737 89.9742 36.9432 89.8082 37.1094C89.6428 37.2753 89.4434 37.3587 89.2103 37.3587H87.5913C87.358 37.3587 87.1588 37.2753 86.9932 37.1094C86.8272 36.9432 86.7449 36.737 86.7449 36.4908V25.3006C86.7449 25.0545 86.824 24.8482 86.9837 24.6821C87.1434 24.5155 87.3396 24.4328 87.5727 24.4328H91.2344C91.4675 24.4328 91.6886 24.5155 91.8968 24.6821C92.1057 24.8482 92.2468 25.0481 92.3202 25.2821L94.9697 32.9821L97.6197 25.2821C97.6934 25.0481 97.8345 24.8482 98.0427 24.6821C98.2515 24.5155 98.4724 24.4328 98.7051 24.4328H102.367C102.6 24.4328 102.797 24.5155 102.956 24.6821C103.115 24.8482 103.195 25.0545 103.195 25.3006V36.4908C103.195 36.737 103.112 36.9432 102.947 37.1094C102.781 37.2753 102.582 37.3587 102.349 37.3587H100.729C100.496 37.3587 100.297 37.2753 100.131 37.1094C99.9657 36.9432 99.8828 36.737 99.8828 36.4908V27.6826L96.7179 36.5459C96.6323 36.7676 96.4848 36.9586 96.2766 37.1182C96.0678 37.2785 95.8467 37.3587 95.6142 37.3587ZM116.656 24.4328C116.889 24.4328 117.088 24.5155 117.254 24.6821C117.419 24.8482 117.503 25.0481 117.503 25.2821V26.1314C117.503 26.3653 117.419 26.5654 117.254 26.7313C117.088 26.8979 116.889 26.9807 116.656 26.9807H108.835V29.6029H115.571C115.803 29.6029 116.003 29.6863 116.168 29.8522C116.334 30.0183 116.417 30.2187 116.417 30.4522V31.3021C116.417 31.536 116.334 31.736 116.168 31.9021C116.003 32.068 115.803 32.1514 115.571 32.1514H108.835V34.8101H116.638C116.87 34.8101 117.067 34.8904 117.226 35.0504C117.386 35.2106 117.465 35.4076 117.465 35.6415V36.5094C117.465 36.7433 117.383 36.9432 117.217 37.1094C117.052 37.2753 116.852 37.3587 116.619 37.3587H106.296C106.063 37.3587 105.864 37.2753 105.698 37.1094C105.532 36.9432 105.45 36.737 105.45 36.4908V25.2635C105.45 25.0296 105.532 24.8328 105.698 24.6726C105.864 24.5128 106.063 24.4328 106.296 24.4328H116.656ZM119.803 36.528V25.2821C119.803 25.0359 119.882 24.8328 120.042 24.6726C120.201 24.5128 120.404 24.4328 120.649 24.4328H129.334C129.58 24.4328 129.782 24.5128 129.941 24.6726C130.101 24.8328 130.181 25.0359 130.181 25.2821V26.1314C130.181 26.3775 130.101 26.5806 129.941 26.7408C129.782 26.9011 129.58 26.9807 129.334 26.9807H123.188V36.528C123.188 36.7619 123.106 36.9586 122.94 37.1182C122.774 37.2785 122.575 37.3587 122.342 37.3587H120.649C120.416 37.3587 120.217 37.2785 120.051 37.1182C119.885 36.9586 119.803 36.7619 119.803 36.528ZM129.297 36.528L131.56 27.9408C132.174 25.6019 134.161 24.4328 137.522 24.4328H142.362C142.583 24.4328 142.767 24.5155 142.914 24.6821C143.061 24.8482 143.135 25.0418 143.135 25.2635V36.528C143.135 36.7619 143.052 36.9586 142.886 37.1182C142.721 37.2785 142.522 37.3587 142.288 37.3587H140.595C140.35 37.3587 140.148 37.2785 139.988 37.1182C139.829 36.9586 139.749 36.7555 139.749 36.5094V34.2378H133.363L132.757 36.5094C132.695 36.7555 132.561 36.9586 132.352 37.1182C132.143 37.2785 131.922 37.3587 131.689 37.3587H129.923C129.69 37.3587 129.512 37.2785 129.389 37.1182C129.267 36.9586 129.236 36.7619 129.297 36.528ZM134.817 28.7907L134.027 31.6899H139.749V26.9807H137.191C136.615 26.9807 136.112 27.1441 135.682 27.4702C135.253 27.7966 134.965 28.2364 134.817 28.7907ZM146.613 34.8101L148.287 27.9779C148.863 25.6141 150.808 24.4328 154.12 24.4328H158.978C159.211 24.4328 159.411 24.5128 159.576 24.6726C159.742 24.8328 159.825 25.0296 159.825 25.2635V36.528C159.825 36.7619 159.742 36.9586 159.576 37.1182C159.411 37.2785 159.211 37.3587 158.978 37.3587H145.913C145.68 37.3587 145.481 37.2753 145.315 37.1094C145.15 36.9432 145.067 36.7433 145.067 36.5094V35.6415C145.067 35.4076 145.15 35.2106 145.315 35.0504C145.481 34.8904 145.68 34.8101 145.913 34.8101H146.613ZM151.581 28.7536L150.072 34.8101H156.439V26.9807H153.752C153.188 26.9807 152.719 27.1377 152.344 27.4519C151.97 27.7658 151.716 28.1998 151.581 28.7536ZM171.831 27.6735C171.224 26.953 170.245 26.5928 168.896 26.5928C167.547 26.5928 166.568 26.953 165.961 27.6735C165.354 28.3934 165.05 29.4676 165.05 30.8957C165.05 32.3237 165.354 33.3974 165.961 34.1179C166.568 34.8382 167.547 35.1979 168.896 35.1979C170.245 35.1979 171.224 34.8382 171.831 34.1179C172.438 33.3974 172.742 32.3237 172.742 30.8957C172.742 29.4676 172.438 28.3934 171.831 27.6735ZM163.504 36.0196C162.278 34.9427 161.664 33.2346 161.664 30.8957C161.664 28.5568 162.278 26.8485 163.504 25.7712C164.731 24.6943 166.528 24.1558 168.896 24.1558C171.264 24.1558 173.061 24.6943 174.287 25.7712C175.514 26.8485 176.128 28.5568 176.128 30.8957C176.128 33.2346 175.514 34.9427 174.287 36.0196C173.061 37.0971 171.264 37.6354 168.896 37.6354C166.528 37.6354 164.731 37.0971 163.504 36.0196ZM186.837 37.3587H185.549C185.316 37.3587 185.095 37.2785 184.886 37.1182C184.677 36.9586 184.531 36.7676 184.444 36.5459L181.279 27.6826V36.4908C181.279 36.737 181.197 36.9432 181.031 37.1094C180.866 37.2753 180.666 37.3587 180.433 37.3587H178.814C178.581 37.3587 178.382 37.2753 178.216 37.1094C178.05 36.9432 177.968 36.737 177.968 36.4908V25.3006C177.968 25.0545 178.047 24.8482 178.206 24.6821C178.366 24.5155 178.562 24.4328 178.795 24.4328H182.457C182.69 24.4328 182.911 24.5155 183.12 24.6821C183.328 24.8482 183.47 25.0481 183.543 25.2821L186.193 32.9821L188.842 25.2821C188.916 25.0481 189.057 24.8482 189.265 24.6821C189.474 24.5155 189.695 24.4328 189.928 24.4328H193.59C193.823 24.4328 194.019 24.5155 194.179 24.6821C194.338 24.8482 194.418 25.0545 194.418 25.3006V36.4908C194.418 36.737 194.335 36.9432 194.169 37.1094C194.004 37.2753 193.805 37.3587 193.572 37.3587H191.952C191.719 37.3587 191.519 37.2753 191.354 37.1094C191.189 36.9432 191.106 36.737 191.106 36.4908V27.6826L187.941 36.5459C187.855 36.7676 187.708 36.9586 187.499 37.1182C187.291 37.2785 187.069 37.3587 186.837 37.3587Z" fill="white"/>
<defs>
<radialGradient id="paint0_radial" cx="0" cy="0" r="1" gradientUnits="userSpaceOnUse" gradientTransform="translate(35.3558 35.7585) scale(83.3496 83.4123)">
<stop stop-color="#FF4336"/>
<stop offset="1" stop-color="#A72421"/>
</radialGradient>
</defs>
</svg>
