<?xml version="1.0" encoding="UTF-8"?>
<!DOCTYPE svg PUBLIC "-//W3C//DTD SVG 1.1//EN" "http://www.w3.org/Graphics/SVG/1.1/DTD/svg11.dtd">
<!-- Creator: CorelDRAW -->
<svg xmlns="http://www.w3.org/2000/svg" xml:space="preserve" width="297mm" height="210mm" style="shape-rendering:geometricPrecision; text-rendering:geometricPrecision; image-rendering:optimizeQuality; fill-rule:evenodd; clip-rule:evenodd"
viewBox="0 0 297 210"
 xmlns:xlink="http://www.w3.org/1999/xlink"
 version="1.1">
 <defs>
  <style type="text/css">
   <![CDATA[
    .fil0 {fill:#C5C6C6}
    .fil1 {fill:#B3B3B3}
   ]]>
  </style>
 </defs>
 <g id="Layer_x0020_1">
  <metadata id="CorelCorpID_0Corel-Layer"/>
  <g id="_397696448">
   <path id="_397696040" class="fil0" d="M161.304 76.2308c-0.0011,0.001 -0.0026,0.0022 -0.0036,0.0028 -0.0323,0.0215 -0.0374,0.0117 -0.0555,0.044l-0.013 0.0202c-0.0047,0.0444 -0.0042,0.054 0.0162,0.1049 0.0724,0.1805 0.1699,0.3735 0.2577,0.549 0.0084,0.0169 0.015,0.0309 0.023,0.0462l0.1188 0.2177c0.0155,0.0299 0.0321,0.0547 0.0478,0.0858l0.0502 0.0884c0.1773,0.2957 0.2622,0.4119 0.4647,0.6833 0.0329,0.0441 0.0854,0.1105 0.1214,0.1509l0.0646 0.0739c0.0173,0.021 0.1505,0.1356 0.1782,0.1582 0.024,0.0196 0.0511,0.04 0.0766,0.0571 0.1628,0.1084 0.245,0.1699 0.4365,0.2464 0.2615,0.1045 0.4421,0.089 0.7225,0.089 0.1014,0 0.2457,0.0039 0.2572,-0.1486 0.0015,-0.0197 0,-0.0441 0,-0.0643 0.0001,-0.0829 0.0224,-0.2177 0.0562,-0.2853 0.023,-0.0462 0.081,-0.13 0.137,-0.1353 0.1116,-0.0104 0.2471,0.1493 0.311,0.2285l0.0961 0.1068c0.1025,0.1064 0.1827,0.2113 0.3393,0.2743 0.0397,0.0159 0.0999,0.0358 0.1489,0.0388l0.0246 0c0.0182,-0.0012 0.0268,-0.0049 0.0498,-0.0052 0.0444,-0.0005 0.0894,0.0005 0.134,0.0004 0.0297,0 0.0358,-0.005 0.0639,-0.0053 0.0754,-0.001 0.2084,0.0036 0.2724,0.0002 0.0237,-0.0013 0.0341,-0.0052 0.0642,-0.005 0.0707,0.0004 0.2085,0.0046 0.2381,-0.0297 0.0011,-0.0011 0.0025,-0.0025 0.0034,-0.0034l0.0189 -0.014c0.0407,-0.0225 0.0202,-0.0188 0.0465,-0.0523 0.0109,-0.0216 0.0084,-0.0666 0.003,-0.0966 -0.0174,-0.0979 -0.1533,-0.283 -0.2195,-0.3495l-0.1088 -0.1188c-0.053,-0.0529 -0.1159,-0.1207 -0.173,-0.1685l-0.1735 -0.168c-0.0126,-0.0124 -0.0146,-0.016 -0.0252,-0.0292 -0.0097,-0.0121 -0.019,-0.0184 -0.0291,-0.0303 -0.121,-0.1434 -0.008,-0.2633 0.0739,-0.3837 0.0984,-0.1445 0.2836,-0.3591 0.391,-0.5195 0.0528,-0.0789 0.1356,-0.1957 0.1788,-0.2814 0.0277,-0.0549 0.0809,-0.1524 0.0923,-0.2345l0 -0.056c-0.0033,-0.0187 -0.0107,-0.0355 -0.0233,-0.0491 -0.0162,-0.0175 -0.0497,-0.0315 -0.0756,-0.0383 -0.077,-0.0201 -0.1393,-0.0046 -0.2128,-0.0048 -0.1052,-0.0004 -0.5091,-0.0047 -0.5689,0.0002 -0.0322,0.0027 -0.0677,0.0087 -0.1071,0.0026 -0.0664,-0.0105 -0.1202,0.0146 -0.1522,0.0697 -0.0134,0.0232 -0.0242,0.0566 -0.035,0.0837 -0.0432,0.1083 -0.0915,0.2139 -0.1414,0.3138 -0.0251,0.0503 -0.0536,0.099 -0.0792,0.1485 -0.019,0.0369 -0.0618,0.1056 -0.0851,0.1426 -0.0698,0.1109 -0.1028,0.1656 -0.1828,0.2724 -0.0372,0.0498 -0.118,0.1322 -0.1716,0.1698 -0.0505,0.0354 -0.0469,0.0051 -0.09,0.011 -0.0265,-0.02 -0.0399,-0.0239 -0.0544,-0.0564 -0.0094,-0.0402 -0.036,-0.0627 -0.0398,-0.1879l0 -0.1686c0.0001,-0.0271 0.004,-0.0318 0.0052,-0.0542 0.0037,-0.0685 -0.0075,-0.1621 0.0013,-0.2263 0.0045,-0.0332 0.0029,-0.0703 0.0034,-0.1104 0.0004,-0.0312 0.0052,-0.0538 0.0052,-0.1136 -0.0001,-0.3032 0.0062,-0.4001 -0.3811,-0.4207 -0.0195,-0.001 -0.0393,0.0015 -0.0586,-0.0007 -0.0186,-0.0021 -0.041,-0.0034 -0.0653,-0.0042l-0.1193 0c-0.0359,0.001 -0.0691,0.0026 -0.0936,0.0047 -0.0583,0.0048 -0.1474,0.0027 -0.2154,0.0121 -0.0642,0.0089 -0.1357,0.02 -0.1836,0.0441 -0.0366,0.0184 -0.1084,0.0734 -0.1216,0.1118 -0.0236,0.0682 0.1849,-0.0053 0.2531,0.199 0.0526,0.1574 0.0505,0.3405 0.0502,0.5241 0,0.0501 -0.027,0.2603 -0.0368,0.3047 -0.0089,0.0406 -0.0421,0.1341 -0.0812,0.1464 -0.0652,0.0204 -0.1174,-0.0061 -0.1654,-0.0492 -0.021,-0.019 -0.0415,-0.0338 -0.0582,-0.0556 -0.0097,-0.0128 -0.0152,-0.0165 -0.0259,-0.0285 -0.009,-0.0101 -0.0175,-0.0216 -0.0264,-0.033 -0.0316,-0.0404 -0.0449,-0.0651 -0.0704,-0.1028 -0.0569,-0.0843 -0.1332,-0.2371 -0.1841,-0.3356 -0.0069,-0.0133 -0.0129,-0.0212 -0.0198,-0.0345 -0.0594,-0.114 -0.1555,-0.3108 -0.2015,-0.4271 -0.0271,-0.0686 -0.0388,-0.097 -0.1013,-0.1312 -0.0742,-0.0406 -0.0976,-0.0254 -0.192,-0.0257 -0.1117,-0.0004 -0.6422,-0.0088 -0.6752,0.0148z"/>
   <path id="_397695992" class="fil1" d="M166.003 78.8189c0.0111,-0.0046 0.0068,-0.0021 0.0136,-0.0059l0.0064 -0.0043c0.0009,-0.0006 0.0019,-0.0015 0.0028,-0.002 0.0063,-0.0043 0.014,-0.0082 0.0202,-0.0137 0.0101,-0.0088 0.0217,-0.0281 0.0258,-0.0438 -0.0263,0.0335 -0.0058,0.0298 -0.0465,0.0523l-0.0189 0.014c-0.0009,0.0009 -0.0023,0.0023 -0.0034,0.0034z"/>
   <path id="_397696280" class="fil1" d="M161.232 76.2978l0.013 -0.0202c0.0181,-0.0323 0.0232,-0.0225 0.0555,-0.044 0.001,-0.0006 0.0025,-0.0018 0.0036,-0.0028 -0.0273,0.0069 -0.0476,0.0206 -0.0623,0.0435l-0.0098 0.0235z"/>
   <path id="_397696232" class="fil1" d="M164.157 77.4353c-0.0131,-0.0228 -0.013,-0.0039 -0.0406,-0.0411 -0.0094,-0.0126 -0.0042,-0.007 -0.0138,-0.0153 0.0145,0.0325 0.0279,0.0364 0.0544,0.0564z"/>
  </g>
 </g>
</svg>
