<svg width="225" height="220" viewBox="0 0 225 220" fill="none" xmlns="http://www.w3.org/2000/svg">
<g clip-path="url(#clip0)">
<path fill-rule="evenodd" clip-rule="evenodd" d="M119.472 219.113C120.783 211.435 118.655 144.922 120.122 137.415L96.5226 137.546L96.429 108.194L119.904 108.067L120.205 93.2672C120.45 76.544 128.278 59.5968 138.374 53.3018C152.174 44.6943 170.888 44.5531 189.332 45.2249L189.317 75.1125L164.225 76.8899C161.635 78.0291 158.207 81.1787 156.964 83.0969C155.174 85.872 154.54 89.9518 154.945 93.6275L154.165 108.15C157.811 107.644 186.627 107.454 189.296 108.155L189.353 137.517C186.357 138.32 158.082 138.053 154.093 137.478L154.623 219.157C171.871 218.616 190.545 220.028 207.507 219.064C214.664 218.655 220.464 213.237 222.502 208.368C224.547 203.5 223.61 191.187 223.61 185.262V37.8638C223.61 34.0469 224.156 29.9186 222.819 26.3062C218.159 13.7406 205.858 14.7872 196.048 14.7872H38.5682C31.4422 14.7872 20.077 13.6042 14.4594 16.8758C9.37762 19.8358 5.24756 24.2125 5.25277 32.4694L5.25832 179.342C5.25832 195.89 1.52902 211.917 16.3532 217.935C22.0644 220.257 106.208 219.02 119.472 219.113V219.113Z" fill="#C5C6C6"/>
<path fill-rule="evenodd" clip-rule="evenodd" d="M154.633 219.161L154.103 137.483C158.092 138.057 186.368 138.325 189.364 137.522L189.306 108.16C186.637 107.459 157.821 107.649 154.175 108.155L154.956 93.6324C153.801 94.7083 153.806 106.047 154.352 108.102L189.093 108.243L189.083 137.488L154.327 137.463C154.233 144.834 153.64 213.952 154.04 217.564C154.279 219.711 154.248 218.572 154.633 219.161V219.161Z" fill="#8697B9"/>
<path fill-rule="evenodd" clip-rule="evenodd" d="M119.472 219.113C120.143 218.251 120.065 220.237 120.101 217.535L120.096 137.663L96.6999 137.444L96.7102 108.233L119.904 108.223L120.205 93.2672L119.904 108.067L96.4293 108.194L96.5229 137.546L120.122 137.415C118.655 144.922 120.783 211.435 119.472 219.113V219.113Z" fill="#8697B9"/>
</g>
<defs>
<clipPath id="clip0">
<rect width="223.949" height="218.836" fill="white" transform="translate(0.434998 0.777771)"/>
</clipPath>
</defs>
</svg>
