<?xml version="1.0" encoding="UTF-8"?>
<!DOCTYPE svg PUBLIC "-//W3C//DTD SVG 1.1//EN" "http://www.w3.org/Graphics/SVG/1.1/DTD/svg11.dtd">
<!-- Creator: CorelDRAW -->
<svg xmlns="http://www.w3.org/2000/svg" xml:space="preserve" width="297mm" height="210mm" style="shape-rendering:geometricPrecision; text-rendering:geometricPrecision; image-rendering:optimizeQuality; fill-rule:evenodd; clip-rule:evenodd"
viewBox="0 0 297 210"
 xmlns:xlink="http://www.w3.org/1999/xlink"
 version="1.1">
 <defs>
  <style type="text/css">
   <![CDATA[
    .fil0 {fill:#C5C6C6}
   ]]>
  </style>
 </defs>
 <g id="Layer_x0020_1">
  <metadata id="CorelCorpID_0Corel-Layer"/>
  <path class="fil0" d="M117.374 155.9c0.1263,-0.4913 0.5786,-0.4785 1.0344,-0.5022 0.7826,-0.0408 1.8962,-0.0456 2.6812,0.0243l0.2722 0.0338c0.0246,0.023 0.0697,0.0159 0.1511,0.0643 0.0294,0.0175 0.0194,0.0141 0.0536,0.0278 0.0545,0.0537 0.0751,0.0521 0.1338,0.1324 0.019,0.026 0.0227,0.0437 0.0444,0.0524 -0.0008,0.0188 0.0251,0.0728 0.0371,0.104 0.0065,0.0166 0.0074,0.0213 0.0182,0.0297 -0.005,0.0363 0.0097,0.074 0.0162,0.1067 0.004,0.0193 0.0063,0.0343 0.0091,0.0527 0.0012,0.008 0.0018,0.016 0.0038,0.0233l0.0124 0.0263c-0.0072,0.0303 0.0018,0.0728 0.008,0.1003 0.0006,0.0371 0.0057,0.0637 0.0085,0.0558 0.0003,-0.0009 0.0016,0.0029 0.0028,0.0038 -0.0117,0.0486 0.0056,0.1413 0.01,0.1932 0.0035,0.0418 0.0029,0.1746 0.0174,0.1886 -0.0119,0.044 0.0032,0.2081 0.0041,0.2679 0.003,0.2174 -0.0073,0.3169 -0.0137,0.5184 -0.0019,0.0603 -0.02,0.2106 -0.0102,0.255l-0.0024 0.0039c-0.0064,0.0147 -0.0367,0.2687 -0.0391,0.2868 -0.0111,0.0824 -0.038,0.1952 -0.0705,0.2592l-0.0875 0.1299c-0.03,0.038 -0.082,0.0725 -0.106,0.0934l-0.0086 0.0092c-0.0364,0.0283 -0.1608,0.0896 -0.2238,0.0862 -0.0236,0.0014 -0.12,0.0106 -0.1393,0.0264l-0.2083 0.0147 -0.1031 0.005c-0.0373,0.0026 -0.0328,0.0081 -0.0363,0.0098l-0.8526 0.0281c-0.1608,0.0124 -0.6524,0.0003 -0.8391,-0.0027l-0.6278 -0.0134c-0.0609,-0.002 -0.1366,-0.0163 -0.1975,-0.0108l-0.0315 -0.0119 -0.102 -0.0036 -0.1023 -0.0026 -0.0108 -0.0075c-0.0163,-0.0063 -0.1646,-0.02 -0.1998,-0.0264 -0.0206,-0.0038 -0.0182,-0.005 -0.0398,-0.0057l-0.0391 -0.0045c-0.0229,-0.0154 -0.052,-0.0174 -0.0978,-0.0397l-0.0403 -0.0203c-0.0224,-0.0118 -0.0207,-0.0152 -0.0469,-0.0252 -0.0424,-0.0153 -0.1205,-0.102 -0.1479,-0.1407 -0.0422,-0.0595 -0.0706,-0.1229 -0.0935,-0.2063 -0.0873,-0.3183 -0.0977,-1.0308 -0.0852,-1.3891 0.0022,-0.062 0.0195,-0.2367 0.0115,-0.2841 0.0166,-0.0247 0.0135,-0.0884 0.0188,-0.132l0.0116 -0.133c-0.0003,-0.0562 0.0284,-0.1966 0.0425,-0.2516zm1.7733 1.7821l0.0013 -1.3657 1.2074 0.6767 -1.2087 0.689z"/>
 </g>
</svg>
